<?xml version="1.0" encoding="UTF-8"?>
<!DOCTYPE svg PUBLIC "-//W3C//DTD SVG 1.1//EN" "http://www.w3.org/Graphics/SVG/1.1/DTD/svg11.dtd">
<!-- Creator: CorelDRAW X7 -->
<svg xmlns="http://www.w3.org/2000/svg" xml:space="preserve" width="2177px" height="480px" version="1.1" style="shape-rendering:geometricPrecision; text-rendering:geometricPrecision; image-rendering:optimizeQuality; fill-rule:evenodd; clip-rule:evenodd"
viewBox="0 0 2177 480"
 xmlns:xlink="http://www.w3.org/1999/xlink"
 enable-background="new 0 0 512 512">
 <defs>
  <style type="text/css">
   <![CDATA[
    .fil1 {fill:#0C0F66}
    .fil2 {fill:white}
    .fil0 {fill:black;fill-rule:nonzero}
    .fil3 {fill:white;fill-rule:nonzero}
   ]]>
  </style>
 </defs>
 <g id="Camada_x0020_1">
  <metadata id="CorelCorpID_0Corel-Layer"/>
  <g id="_2420924165360">
   <path class="fil0" d="M560 173c7,-2 16,-4 27,-6 11,-1 24,-2 38,-2 11,0 20,1 27,4 7,3 13,7 18,12 2,-1 4,-2 7,-4 3,-2 7,-4 12,-6 5,-1 10,-3 16,-4 5,-2 12,-2 18,-2 13,0 23,1 31,5 8,4 15,9 19,16 5,7 8,15 9,24 2,9 3,20 3,31l0 93 -30 0 0 -87c0,-10 0,-18 -1,-25 -1,-7 -3,-13 -6,-18 -2,-4 -6,-8 -10,-10 -5,-2 -11,-3 -18,-3 -10,0 -18,1 -25,4 -6,2 -11,5 -13,7 2,5 3,11 4,18 1,7 1,13 1,21l0 93 -29 0 0 -87c0,-10 -1,-18 -2,-25 -1,-7 -3,-13 -6,-18 -2,-4 -6,-8 -10,-10 -5,-2 -11,-3 -18,-3 -3,0 -6,0 -9,0 -4,0 -7,1 -10,1 -3,0 -6,1 -8,1 -3,0 -5,1 -5,1l0 140 -30 0 0 -161z"/>
   <path id="1" class="fil0" d="M980 251c0,13 -2,25 -6,35 -4,11 -9,20 -16,28 -7,7 -15,13 -25,17 -9,5 -20,7 -31,7 -11,0 -21,-2 -31,-7 -10,-4 -18,-10 -25,-17 -7,-8 -12,-17 -16,-28 -4,-10 -5,-22 -5,-35 0,-13 1,-25 5,-36 4,-10 9,-20 16,-27 7,-8 15,-14 25,-18 10,-4 20,-6 31,-6 11,0 22,2 31,6 10,4 18,10 25,18 7,7 12,17 16,27 4,11 6,23 6,36zm-31 0c0,-19 -4,-34 -13,-45 -8,-10 -19,-16 -34,-16 -14,0 -26,6 -34,16 -8,11 -13,26 -13,45 0,18 5,33 13,44 8,11 20,17 34,17 15,0 26,-6 34,-17 9,-11 13,-26 13,-44z"/>
   <path id="2" class="fil0" d="M1021 173c7,-2 16,-4 27,-6 12,-1 25,-2 39,-2 13,0 24,1 33,5 9,4 16,9 21,16 5,6 9,14 11,24 2,9 3,19 3,31l0 93 -30 0 0 -87c0,-10 0,-19 -2,-26 -1,-7 -3,-13 -7,-18 -3,-4 -7,-7 -12,-9 -6,-2 -12,-3 -20,-3 -3,0 -6,0 -10,0 -3,0 -6,1 -10,1 -3,0 -5,1 -8,1 -2,0 -4,1 -5,1l0 140 -30 0 0 -161z"/>
   <path id="3" class="fil0" d="M1195 251c0,-14 2,-27 6,-38 4,-11 10,-20 17,-27 7,-8 15,-13 24,-17 9,-3 19,-5 28,-5 22,0 39,7 51,21 12,14 18,35 18,63 0,2 0,3 0,5 0,2 0,4 0,6l-113 0c1,17 6,30 15,39 8,9 22,13 40,13 11,0 19,-1 26,-2 8,-2 13,-4 17,-6l4 25c-4,2 -10,4 -19,6 -9,2 -20,3 -31,3 -14,0 -27,-2 -37,-6 -11,-5 -19,-11 -26,-18 -7,-8 -12,-17 -15,-27 -4,-11 -5,-22 -5,-35zm113 -16c0,-13 -3,-24 -10,-33 -7,-9 -16,-13 -28,-13 -7,0 -13,1 -18,4 -5,3 -10,6 -13,10 -4,5 -7,10 -9,15 -2,6 -3,11 -4,17l82 0z"/>
   <path id="4" class="fil0" d="M1362 364c3,1 6,2 9,3 4,1 8,2 11,2 12,0 21,-3 28,-8 6,-5 12,-14 18,-25 -14,-26 -26,-53 -38,-81 -11,-29 -21,-58 -29,-87l32 0c2,10 5,20 9,31 3,11 7,22 11,34 4,12 8,23 13,35 4,12 9,23 14,34 8,-23 15,-45 21,-66 6,-22 12,-45 17,-68l31 0c-8,31 -17,61 -26,90 -9,29 -19,56 -30,81 -4,9 -9,17 -13,24 -5,7 -10,13 -15,17 -6,5 -12,8 -19,10 -7,2 -15,3 -23,3 -3,0 -5,0 -8,0 -2,-1 -5,-1 -7,-1 -3,-1 -5,-2 -7,-2 -2,-1 -3,-1 -4,-2l5 -24z"/>
   <path id="5" class="fil0" d="M1569 175c4,-2 9,-4 17,-7 7,-2 15,-4 25,-4 12,0 22,2 32,7 9,4 17,10 23,17 6,8 11,17 14,28 4,10 5,22 5,35 0,13 -2,25 -5,36 -4,11 -10,20 -17,27 -7,8 -16,13 -26,17 -10,4 -22,6 -35,6 -13,0 -26,-1 -36,-3 -11,-1 -19,-3 -26,-5l0 -237 29 -5 0 88zm0 133c3,1 8,1 13,2 5,1 12,1 20,1 16,0 29,-5 38,-16 10,-10 15,-25 15,-44 0,-9 -1,-17 -3,-24 -2,-7 -4,-14 -8,-19 -4,-6 -9,-10 -15,-13 -6,-3 -13,-5 -22,-5 -8,0 -15,2 -22,5 -7,2 -12,5 -16,8l0 105z"/>
   <path id="6" class="fil0" d="M1783 312c7,0 13,0 19,0 5,-1 10,-1 13,-2l0 -49c-2,-1 -5,-2 -10,-3 -5,-1 -11,-1 -17,-1 -5,0 -10,0 -15,1 -5,0 -9,2 -13,4 -4,2 -8,5 -11,8 -2,4 -4,8 -4,14 0,10 4,18 10,22 7,4 16,6 28,6zm-2 -148c11,0 21,2 30,5 8,3 14,7 19,13 5,5 9,12 11,20 2,7 3,16 3,25l0 104c-2,0 -6,1 -11,1 -4,1 -9,2 -15,2 -6,1 -12,2 -19,2 -6,1 -13,1 -19,1 -10,0 -18,-1 -26,-3 -8,-2 -15,-5 -21,-9 -5,-4 -10,-10 -13,-16 -3,-7 -5,-15 -5,-25 0,-9 2,-17 6,-23 4,-7 9,-12 15,-16 6,-4 14,-7 22,-9 9,-2 18,-3 27,-3 3,0 6,0 9,0 3,1 6,1 9,2 3,0 6,1 8,1 2,1 3,1 4,1l0 -8c0,-5 0,-10 -1,-15 -1,-4 -3,-9 -6,-12 -3,-4 -7,-7 -11,-9 -5,-2 -11,-4 -19,-4 -10,0 -18,1 -26,3 -7,1 -12,2 -16,4l-4 -25c4,-1 11,-3 20,-5 8,-1 18,-2 29,-2z"/>
   <path id="7" class="fil0" d="M1965 337c-13,0 -25,-2 -35,-6 -10,-4 -19,-10 -26,-18 -7,-7 -12,-17 -15,-27 -3,-11 -5,-22 -5,-35 0,-13 2,-24 5,-35 4,-10 9,-20 16,-27 7,-8 15,-14 25,-18 10,-5 21,-7 33,-7 7,0 15,1 22,2 8,1 15,3 22,6l-7 25c-5,-2 -10,-4 -15,-5 -6,-1 -13,-2 -19,-2 -17,0 -29,5 -38,16 -9,10 -13,25 -13,45 0,9 1,17 3,25 2,7 5,13 9,19 5,5 10,9 17,12 7,3 15,4 25,4 8,0 15,-1 21,-2 6,-1 11,-3 15,-5l4 25c-2,1 -4,2 -7,3 -3,1 -7,2 -11,3 -4,0 -8,1 -13,2 -4,0 -9,0 -13,0z"/>
   <path id="8" class="fil0" d="M2101 243c6,4 13,10 20,18 7,7 14,15 21,23 7,8 13,17 20,25 6,9 11,17 15,25l-35 0c-4,-8 -9,-15 -15,-23 -6,-8 -12,-15 -18,-22 -7,-8 -13,-14 -20,-20 -6,-6 -13,-11 -18,-15l0 80 -30 0 0 -242 30 -5 0 150c5,-5 10,-10 16,-16 7,-7 13,-13 19,-19 5,-7 11,-13 16,-18 6,-6 10,-11 14,-16l35 0c-5,5 -10,11 -16,18 -6,6 -12,12 -18,19 -6,6 -12,13 -19,19 -6,7 -12,13 -17,19z"/>
   <rect class="fil1" width="480" height="480" rx="107" ry="107"/>
   <g>
    <g>
     <path class="fil2" d="M351 129c-29,-30 -69,-47 -111,-47 -26,0 -51,7 -73,18 -13,7 -25,16 -36,26l0 -44 -24 0 0 87 86 0 0 -25 -45 0c24,-23 57,-37 92,-37 73,0 133,60 133,133 0,4 0,8 -1,12l25 3c0,-5 1,-10 1,-15l-13 0 13 0c0,-42 -17,-82 -47,-111z"/>
     <polygon class="fil2" points="398,240 398,240 398,240 "/>
     <path class="fil2" d="M136 323l-19 16c6,7 12,13 18,19l17 -18c-6,-5 -11,-11 -16,-17z"/>
     <path class="fil2" d="M114 284l-23 8c3,9 7,17 11,25l22 -12c-4,-7 -7,-14 -10,-21z"/>
     <path class="fil2" d="M107 240l-25 0c0,9 1,18 2,27l25 -4c-2,-8 -2,-15 -2,-23z"/>
     <path class="fil2" d="M170 353l-13 21c7,5 15,9 24,12l9 -23c-7,-2 -14,-6 -20,-10z"/>
     <path class="fil2" d="M368 274c-2,8 -4,15 -7,22l22 10c4,-8 7,-17 9,-25l-24 -7z"/>
     <path class="fil2" d="M318 347c-6,5 -12,9 -19,12l11 22c8,-4 16,-8 23,-14l-15 -20z"/>
     <path class="fil2" d="M350 315c-5,6 -9,12 -15,18l18 17c6,-7 12,-14 17,-21l-20 -14z"/>
     <path class="fil2" d="M278 367c-7,3 -14,4 -22,5l3 25c9,-2 18,-3 26,-6l-7 -24z"/>
     <path class="fil2" d="M211 370l-5 24c9,2 18,3 27,4l1 -25c-8,0 -15,-1 -23,-3z"/>
    </g>
    <path class="fil3" d="M288 271c0,10 -3,19 -9,26 -7,7 -15,11 -26,13 -1,0 -1,0 -1,1l0 12c0,1 0,2 -1,2 0,1 -1,1 -1,1l-20 0c-1,0 -1,0 -2,-1 0,0 0,-1 0,-2l0 -12c0,-1 0,-1 -1,-2 -11,-2 -20,-6 -26,-13 -6,-7 -10,-16 -10,-26l0 -4c0,-1 1,-2 1,-2 1,-1 1,-1 2,-1l21 0c0,0 1,0 1,1 1,0 1,1 1,2l0 2c0,6 2,10 7,14 5,3 11,5 19,5 6,0 11,-1 14,-4 4,-3 5,-7 5,-11 0,-3 -1,-6 -3,-8 -2,-2 -4,-4 -8,-6 -3,-1 -9,-4 -16,-6 -9,-3 -16,-7 -21,-10 -6,-3 -11,-7 -15,-12 -4,-6 -6,-12 -6,-20 0,-10 3,-19 9,-25 6,-7 14,-11 25,-13 0,0 1,-1 1,-1l-1 -14c0,-1 1,-2 1,-2 0,-1 1,-1 2,-1l19 0c1,0 1,0 2,1 0,0 0,1 0,2l0 14c0,1 1,1 1,1 11,3 20,7 26,14 6,8 10,17 10,27l0 3c0,0 -1,1 -1,1 -1,1 -1,1 -2,1l-21 0c-1,0 -1,0 -2,-1 0,0 0,-1 0,-1l0 -2c0,-5 -3,-10 -7,-14 -4,-4 -10,-5 -17,-5 -6,0 -11,1 -14,3 -3,3 -5,7 -5,11 0,3 1,6 3,8 2,3 5,5 8,6 4,2 10,5 18,7 9,4 16,7 21,9 5,3 9,7 13,12 4,5 6,12 6,20z"/>
   </g>
  </g>
 </g>
</svg>
